:SAMPLES-PER-SECOND 30
:FULLY-SPECIFIED
:DEGREES
139
root  -54.2769 40.107 6.75258 169.585 -71.8159 -175.855
RightUpLeg  6.14374 -0.64394 -1.42442
RightLeg  19.7258 9.20685 2.69469
RightFoot  -16.6382 -0.276333 -3.54888
RightToes  0.00048216 0.542163 -0.142577
Spine  5.76683 1.27065 9.57777
Spine1  8.6706 2.15109 -1.38595
HEad  -11.7122 13.8235 -1.76438
LeftShoulder1  8.26346 -12.0828 -46.2393
LeftArm  -5.23757 26.704 -27.4445
LeftForeArm  45.4163 -7.05527 -6.17792
LeftHand  -0.25398 0.0180481 5.50724
RightShoulder  4.91174 8.58862 34.6639
RightArm  7.48762 -5.87454 40.8229
RightForeArm  22.2371 63.1481 20.6052
RightHand  -0.363245 -2.27322 -13.1049
LeftUpLeg  -15.0564 4.97683 10.2317
LeftLeg  1.79591 -3.45046 0.279892
LeftFoot  -2.26918 0.698323 -8.57593
LeftToes  1.06247e-005 4.65855e-005 -8.185e-006
140
root  -55.6447 39.89 7.16481 170.423 -69.0057 -176.793
RightUpLeg  7.30107 3.16465 -2.28595
RightLeg  20.6848 8.35975 2.76858
RightFoot  -18.2549 -0.254518 -2.17223
RightToes  0.00048216 0.542163 -0.142577
Spine  5.59303 1.14278 9.14092
Spine1  9.10367 1.96959 -1.2939
HEad  -12.1473 15.6627 -1.97496
LeftShoulder1  8.41227 -12.1567 -46.8627
LeftArm  -5.84012 27.5237 -27.9679
LeftForeArm  44.53 -7.1897 -6.00821
LeftHand  -0.25398 0.0180481 5.50724
RightShoulder  4.91288 8.63172 34.5285
RightArm  9.45451 -5.49262 40.9032
RightForeArm  18.5448 57.948 16.534
RightHand  -0.377941 -2.10808 -12.9809
LeftUpLeg  -15.0713 4.91369 9.79132
LeftLeg  2.67892 -8.26089 -0.342239
LeftFoot  -0.571398 1.12573 -11.8174
LeftToes  1.06247e-005 4.65855e-005 -8.185e-006
141
root  -57.0623 39.6611 7.65209 172.152 -66.1272 -178.519
RightUpLeg  8.11636 7.86479 -3.54855
RightLeg  21.7534 6.93842 2.72433
RightFoot  -19.8207 -0.167905 -0.473562
RightToes  0.00048216 0.542163 -0.142577
Spine  5.59133 1.2473 8.62697
Spine1  9.06515 1.9997 -1.09002
HEad  -12.5021 16.5123 -2.52391
LeftShoulder1  8.76825 -12.4128 -48.0849
LeftArm  -6.26451 27.6458 -28.1796
LeftForeArm  44.3403 -7.76529 -5.90876
LeftHand  -0.25398 0.0180481 5.50724
RightShoulder  4.79158 8.45876 34.1068
RightArm  10.688 -5.57211 41.0146
RightForeArm  15.4841 50.9376 12.6851
RightHand  -0.451018 -1.43591 -13.0407
LeftUpLeg  -15.946 3.20727 8.31981
LeftLeg  7.13818 -10.3085 -0.908494
LeftFoot  4.14264 1.56654 -11.7906
LeftToes  1.06247e-005 4.65855e-005 -8.185e-006
142
root  -58.4475 39.4825 8.12737 175.088 -62.729 178.608
RightUpLeg  8.33917 12.6509 -5.5055
RightLeg  22.9668 5.65348 2.41458
RightFoot  -21.0375 -0.0138264 1.53002
RightToes  0.00048216 0.542163 -0.142577
Spine  5.95628 1.77631 7.20428
Spine1  8.50614 2.39204 -0.643193
HEad  -12.9538 16.5713 -3.07155
LeftShoulder1  8.9648 -12.4542 -49.0431
LeftArm  -6.33199 26.615 -28.3744
LeftForeArm  44.4909 -8.40436 -5.92732
LeftHand  -0.25398 0.0180481 5.50724
RightShoulder  4.81287 8.43536 34.3585
RightArm  10.5355 -5.76032 40.6941
RightForeArm  13.4097 41.539 9.03649
RightHand  -0.551101 -0.442229 -12.9108
LeftUpLeg  -17.0634 1.47444 6.44496
LeftLeg  12.3683 -8.75184 -1.65118
LeftFoot  7.63001 1.43878 -8.84099
LeftToes  1.06247e-005 4.65855e-005 -8.185e-006
143
root  -59.7089 39.4865 8.54914 178.529 -58.952 175.294
RightUpLeg  7.84319 15.6054 -8.43289
RightLeg  23.9147 4.23608 1.83084
RightFoot  -20.6028 0.112554 3.13977
RightToes  0.00048216 0.542163 -0.142577
Spine  6.54019 2.46829 4.88267
Spine1  7.80589 2.98165 -0.431151
HEad  -13.4862 16.2209 -3.21129
LeftShoulder1  8.86868 -12.2736 -49.0693
LeftArm  -6.00418 24.6412 -28.7764
LeftForeArm  43.7406 -9.32015 -6.0304
LeftHand  -0.25398 0.0180481 5.50724
RightShoulder  5.08797 8.72943 35.614
RightArm  8.47711 -5.69725 40.0207
RightForeArm  10.4379 29.5311 6.03752
RightHand  -0.793013 1.21832 -13.9706
LeftUpLeg  -17.5026 3.84798 3.857
LeftLeg  15.9809 -7.47982 -2.14447
LeftFoot  6.96043 0.964476 -6.22211
LeftToes  1.06247e-005 4.65855e-005 -8.185e-006
144
root  -60.8715 39.694 8.97424 -178.871 -55.243 172.977
RightUpLeg  6.78023 14.6052 -11.8963
RightLeg  24.3007 1.8658 0.698735
RightFoot  -18.0095 0.0796695 3.40542
RightToes  0.00048216 0.542163 -0.142577
Spine  7.11603 2.87203 3.13627
Spine1  7.09368 3.46242 -0.94494
HEad  -13.8234 15.5914 -3.10668
LeftShoulder1  8.71454 -12.1743 -48.5201
LeftArm  -5.1271 22.5512 -29.1462
LeftForeArm  41.4089 -11.3525 -5.90188
LeftHand  -0.25398 0.0180481 5.50724
RightShoulder  5.42997 9.15768 36.8835
RightArm  0.610206 -5.57223 39.3756
RightForeArm  8.5063 16.2829 5.11463
RightHand  -1.27153 3.27073 -17.1724
LeftUpLeg  -16.7108 8.37261 1.11908
LeftLeg  16.7619 -6.96769 -2.16473
LeftFoot  4.35087 0.607474 -4.60053
LeftToes  1.06247e-005 4.65855e-005 -8.185e-006
145
root  -61.9881 40.0066 9.43637 -177.528 -51.8136 172.284
RightUpLeg  5.47211 9.63397 -14.8186
RightLeg  24.0589 -1.91494 -1.15256
RightFoot  -14.54 -0.031086 2.34283
RightToes  0.00048216 0.542163 -0.142577
Spine  7.63156 2.8814 2.97945
Spine1  6.13305 3.73036 -2.07139
HEad  -13.8534 14.5014 -3.03295
LeftShoulder1  8.64347 -12.2493 -47.89
LeftArm  -3.61661 20.9609 -29.2627
LeftForeArm  38.0444 -15.1239 -4.98975
LeftHand  -0.25398 0.0180481 5.50724
RightShoulder  5.58972 9.43484 37.1885
RightArm  -14.2253 -6.27126 38.7188
RightForeArm  10.8295 5.33317 5.34689
RightHand  -1.66094 4.06082 -20.6232
LeftUpLeg  -15.1533 10.2829 -0.606148
LeftLeg  15.117 -4.78544 -1.92284
LeftFoot  3.24022 0.320006 -2.67873
LeftToes  1.06247e-005 4.65855e-005 -8.185e-006
